<?xml version="1.0" standalone="no"?>
<!DOCTYPE svg PUBLIC "-//W3C//DTD SVG 20010904//EN"
 "http://www.w3.org/TR/2001/REC-SVG-20010904/DTD/svg10.dtd">
<svg version="1.0" xmlns="http://www.w3.org/2000/svg"
 width="700.000000pt" height="700.000000pt" viewBox="0 0 700.000000 700.000000"
 preserveAspectRatio="xMidYMid meet">
<metadata>
Created by potrace 1.14, written by Peter Selinger 2001-2017
</metadata>
<g transform="translate(0.000000,700.000000) scale(0.100000,-0.100000)"
fill="#000000" stroke="none">
<path d="M0 3500 l0 -3500 3500 0 3500 0 0 3500 0 3500 -3500 0 -3500 0 0
-3500z m4163 978 l408 -457 87 97 c48 53 237 265 420 470 183 204 336 372 341
372 12 0 546 -602 546 -616 0 -16 -2115 -2386 -2126 -2382 -20 7 -550 611
-546 621 3 7 165 191 361 411 309 346 355 401 344 415 -35 44 -273 306 -279
306 -4 0 -168 -180 -364 -400 -197 -220 -361 -400 -365 -400 -6 0 -387 422
-724 802 -2 2 -166 -180 -365 -403 -200 -223 -366 -404 -370 -402 -5 2 -130
140 -280 307 l-271 304 32 36 c18 20 307 343 642 719 335 375 613 682 617 682
5 0 160 -170 345 -377 185 -208 347 -389 359 -402 l23 -23 363 407 c343 383
364 406 379 388 8 -10 199 -224 423 -475z"/>
</g>
</svg>
